#
# Exported by OpenBRF -- marco tarini
#
s jeditemple.17
newmtl jedi_temple_trainroom
Ka 0.8 0.8 0.8
Kd 0.2 0.2 0.2
usemtl jedi_temple_trainroom
v 96.4595 9.22626 -13.572
v 99.4753 9.22626 -4.29732
v 100.662 9.22626 -5.83684
v 102.201 9.22626 -6.86551
v 104.017 7.83623 -7.26108
v 99.4753 7.83623 0.937138
v 99.4753 7.83623 -4.23995
v 100.662 7.83623 -5.86113
v 102.201 7.83623 -6.89725
v 106.849 9.22626 3.47502
v 104.017 9.22626 -7.26108
v 101.555 9.22626 4.51469
v 99.4753 9.22626 3.23168
v 103.532 9.22626 3.53953
v 113.744 2.43739 -34.5818
v 113.629 2.43739 -34.6963
v 113.744 2.59935 -34.5818
v 113.629 2.59935 -34.6963
v 113.774 2.62083 -34.5819
v 113.774 2.41591 -34.5819
v 113.63 2.41591 -34.7268
v 113.63 2.62083 -34.7268
v 111.552 2.43739 -36.7737
v 111.438 2.43739 -36.8882
v 111.552 2.59935 -36.7737
v 111.438 2.59935 -36.8882
v 111.583 2.62083 -36.7738
v 111.583 2.41591 -36.7738
v 111.438 2.41591 -36.9187
v 111.438 2.62083 -36.9187
v 102.991 3.03691 -13.9198
v 102.707 3.03691 -13.9198
v 102.991 2.75254 -13.9198
v 102.707 2.75254 -13.9198
v 102.991 2.75254 -13.8571
v 102.991 3.03691 -13.8571
v 102.707 3.03691 -13.8571
v 102.707 2.75254 -13.8571
v 107.062 3.03691 -13.9198
v 106.778 3.03691 -13.9198
v 107.062 2.75254 -13.9198
v 106.778 2.75254 -13.9198
v 107.062 2.75254 -13.8571
v 107.062 3.03691 -13.8571
v 106.778 3.03691 -13.8571
v 106.778 2.75254 -13.8571
v 102.836 5.30383 -28.2827
v 102.836 5.30383 -28.6607
v 102.458 5.30383 -28.2827
v 102.458 5.30383 -28.6607
v 102.836 4.92578 -28.4277
v 102.836 5.07078 -28.2827
v 102.836 5.07078 -28.6607
v 102.836 4.92578 -28.5157
v 102.458 5.07078 -28.2827
v 102.458 4.92578 -28.4277
v 102.458 4.92578 -28.5157
v 102.458 5.07078 -28.6607
v 81.8536 9.22626 6.2552
v 93.8868 9.22626 6.2552
v 93.6089 9.22626 -4.29732
v 92.4223 9.22626 -5.83684
v 90.8828 9.22626 -6.86551
v 96.5421 9.22626 -1.30473
v 96.5421 9.22626 6.2552
v 89.0669 7.83623 -7.26108
v 93.6089 7.83623 0.937138
v 93.6089 7.83623 -4.23995
v 92.4223 7.83623 -5.86113
v 90.8828 7.83623 -6.89725
v 86.2355 9.22626 3.47502
v 89.0669 9.22626 -7.26108
v 91.5294 9.22626 4.51469
v 93.6089 9.22626 3.23168
v 89.5522 9.22626 3.53953
v 79.3403 2.43739 -34.5818
v 79.4548 2.43739 -34.6963
v 79.3403 2.59935 -34.5818
v 79.4548 2.59935 -34.6963
v 79.3098 2.62083 -34.5819
v 79.3098 2.41591 -34.5819
v 79.4547 2.41591 -34.7268
v 79.4547 2.62083 -34.7268
v 81.5321 2.43739 -36.7737
v 81.6467 2.43739 -36.8882
v 81.5321 2.59935 -36.7737
v 81.6467 2.59935 -36.8882
v 81.5016 2.62083 -36.7738
v 81.5016 2.41591 -36.7738
v 81.6465 2.41591 -36.9187
v 81.6465 2.62083 -36.9187
v 90.0931 3.03691 -13.9198
v 90.3774 3.03691 -13.9198
v 90.0931 2.75254 -13.9198
v 90.3774 2.75254 -13.9198
v 90.0931 2.75254 -13.8571
v 90.0931 3.03691 -13.8571
v 90.3774 3.03691 -13.8571
v 90.3774 2.75254 -13.8571
v 86.0218 3.03691 -13.9198
v 86.3061 3.03691 -13.9198
v 86.0218 2.75254 -13.9198
v 86.3061 2.75254 -13.9198
v 86.0218 2.75254 -13.8571
v 86.0218 3.03691 -13.8571
v 86.3061 3.03691 -13.8571
v 86.3061 2.75254 -13.8571
v 90.2477 5.30383 -28.2827
v 90.2477 5.30383 -28.6607
v 90.6258 5.30383 -28.2827
v 90.6258 5.30383 -28.6607
v 90.2477 4.92578 -28.4277
v 90.2477 5.07078 -28.2827
v 90.2477 5.07078 -28.6607
v 90.2477 4.92578 -28.5157
v 90.6258 5.07078 -28.2827
v 90.6258 4.92578 -28.4277
v 90.6258 4.92578 -28.5157
v 90.6258 5.07078 -28.6607
v 111.231 9.22626 6.2552
v 99.1974 9.22626 6.2552
v 103.532 7.83623 3.53953
v 96.6247 9.22626 -13.572
v 89.5522 7.83623 3.53953
vn -0.7071 0 0.7071
vt 0.045392 0.55488
vn -0.7071 0 0.7071
vt 0.045392 0.55488
vn -0.7071 0 0.7071
vt 0.045392 0.55488
vn 0 1 0
vt 0.627026 0.481476
vn 0 1 0
vt 0.687955 0.593943
vn 0 1 0
vt 0.710276 0.578989
vn 0.792 -0.0107 0.6104
vt 0.975719 0.503712
vn 0.792 -0.0107 0.6104
vt 0.995896 0.481476
vn 0.792 -0.0107 0.6104
vt 0.97574 0.481835
vn 1 0 0
vt 0.995896 0.57978
vn 1 0 0
vt 0.975719 0.503712
vn 1 0 0
vt 0.97575 0.613134
vn 0 1 0
vt 0.670751 0.616325
vn 0 1 0
vt 0.628224 0.65983
vn 0 1 0
vt 0.670991 0.617002
vn 0 1 0
vt 0.710515 0.578371
vn 0 1 0
vt 0.688194 0.593433
vn 0 1 0
vt 0.670751 0.725788
vn 0 1 0
vt 0.666722 0.769747
vn 0 1 0
vt 0.628223 0.769743
vn 0 1 0
vt 0.729568 0.73027
vn 0 1 0
vt 0.841188 0.769763
vn 0 1 0
vt 0.777656 0.729336
vn 0 1 0
vt 0.700902 0.744445
vn 0 1 0
vt 0.729808 0.730113
vn 0 1 0
vt 0.736845 0.573084
vn 0.3134 0.8023 -0.5081
vt 0.729808 0.730113
vn 0.3134 0.8023 -0.5081
vt 0.670751 0.725788
vn 0.3134 0.8023 -0.5081
vt 0.700902 0.744445
vn 0.5582 -0.0189 0.8295
vt 0.307711 0.839123
vn 0.5582 -0.0189 0.8295
vt 0.287718 0.816491
vn 0.5582 -0.0189 0.8295
vt 0.287552 0.839127
vn 0 1 0
vt 0.736605 0.573241
vn 0.1964 0 0.9805
vt 0.307648 0.86562
vn 0.1964 0 0.9805
vt 0.287552 0.839127
vn 0.1964 0 0.9805
vt 0.287494 0.865616
vn 0.0039 0 1
vt 0.707501 0.414492
vn 0.0039 0 1
vt 0.707944 0.411825
vn 0.0039 0 1
vt 0.707501 0.411513
vn -1 0 -0.004
vt 0.680907 0.474858
vn -1 0 -0.004
vt 0.680466 0.477526
vn -1 0 -0.004
vt 0.680907 0.477838
vn -0.4982 0.7097 0.4982
vt 0.709316 0.477838
vn -0.4982 0.7097 0.4982
vt 0.709626 0.47517
vn -0.4982 0.7097 0.4982
vt 0.709316 0.474858
vn -0.4981 -0.7098 0.4981
vt 0.631984 0.476692
vn -0.4981 -0.7098 0.4981
vt 0.631665 0.479361
vn -0.4981 -0.7098 0.4981
vt 0.631984 0.479671
vn -0.7071 0 0.7071
vt 0.045392 0.55488
vn -0.7071 0 0.7071
vt 0.045392 0.55488
vn -0.7071 0 0.7071
vt 0.045392 0.55488
vn 0.004 0 1
vt 0.707424 0.477838
vn 0.004 0 1
vt 0.707866 0.475171
vn 0.004 0 1
vt 0.707424 0.474858
vn -1 0 -0.004
vt 0.681596 0.410378
vn -1 0 -0.004
vt 0.681154 0.413045
vn -1 0 -0.004
vt 0.681596 0.413357
vn -0.4981 0.7099 0.498
vt 0.709703 0.411513
vn -0.4981 0.7099 0.498
vt 0.709394 0.414181
vn -0.4981 0.7099 0.498
vt 0.709703 0.414492
vn -0.4981 -0.7098 0.4981
vt 0.708859 0.468137
vn -0.4981 -0.7098 0.4981
vt 0.709178 0.470801
vn -0.4981 -0.7098 0.4981
vt 0.709178 0.467822
vn 0 0 -1
vt 0.208952 0.967168
vn 0 0 -1
vt 0.208952 0.967168
vn 0 0 -1
vt 0.208952 0.967168
vn 0 1 0
vt 0.683046 0.414512
vn 0 1 0
vt 0.683955 0.410378
vn 0 1 0
vt 0.683046 0.410378
vn -1 0 0
vt 0.691029 0.410378
vn -1 0 0
vt 0.690122 0.414513
vn -1 0 0
vt 0.691029 0.414512
vn 1 0 0
vt 0.687763 0.414512
vn 1 0 0
vt 0.688672 0.410378
vn 1 0 0
vt 0.687763 0.410378
vn 0 -1 0
vt 0.685476 0.471956
vn 0 -1 0
vt 0.686385 0.467822
vn 0 -1 0
vt 0.685476 0.467822
vn 0 0 -1
vt 0.208952 0.967168
vn 0 0 -1
vt 0.208952 0.967168
vn 0 0 -1
vt 0.208952 0.967168
vn 0 1 0
vt 0.685405 0.414512
vn 0 1 0
vt 0.686313 0.410378
vn 0 1 0
vt 0.685405 0.410378
vn -1 0 0
vt 0.688534 0.478993
vn -1 0 0
vt 0.689441 0.474858
vn -1 0 0
vt 0.688534 0.474859
vn 1 0 0
vt 0.688743 0.467822
vn 1 0 0
vt 0.687835 0.471956
vn 1 0 0
vt 0.688743 0.471956
vn 0 -1 0
vt 0.687084 0.474859
vn 0 -1 0
vt 0.686175 0.478992
vn 0 -1 0
vt 0.687084 0.478992
vn -1 0 0
vt 0.661243 0.469932
vn -1 0 0
vt 0.666718 0.469928
vn -1 0 0
vt 0.663343 0.467823
vn 0 0 -1
vt 0.633486 0.467989
vn 0 0 -1
vt 0.636865 0.473469
vn 0 0 -1
vt 0.636865 0.46799
vn 0 0 1
vt 0.640428 0.467857
vn 0 0 1
vt 0.643807 0.473353
vn 0 0 1
vt 0.643807 0.467857
vn 0 1 0
vt 0.652864 0.473319
vn 0 1 0
vt 0.647383 0.467822
vn 0 1 0
vt 0.647383 0.473318
vn 0 -0.7071 -0.7071
vt 0.208952 0.967168
vn 0 -0.7071 -0.7071
vt 0.208952 0.967168
vn 0 -0.7071 -0.7071
vt 0.208952 0.967168
vn 0 -0.7071 0.7071
vt 0.208952 0.967168
vn 0 -0.7071 0.7071
vt 0.208952 0.967168
vn 0 -0.7071 0.7071
vt 0.208952 0.967168
vn 1 0 0
vt 0.654314 0.46993
vn 1 0 0
vt 0.659793 0.46993
vn 1 0 0
vt 0.656415 0.467822
vn 0.7071 0 0.7071
vt 0.045392 0.55488
vn 0.7071 0 0.7071
vt 0.045392 0.55488
vn 0.7071 0 0.7071
vt 0.045392 0.55488
vn 0 1 0
vt 0.627026 0.481476
vn 0 1 0
vt 0.710276 0.578989
vn 0 1 0
vt 0.687955 0.593943
vn -0.8067 0.0244 0.5904
vt 0.975719 0.503712
vn -0.8067 0.0244 0.5904
vt 0.995896 0.481476
vn -0.8067 0.0244 0.5904
vt 0.995875 0.504539
vn -1 0 0
vt 0.975719 0.503712
vn -1 0 0
vt 0.995896 0.57978
vn -1 0 0
vt 0.97575 0.613134
vn 0 1 0
vt 0.670751 0.616325
vn 0 1 0
vt 0.670991 0.617002
vn 0 1 0
vt 0.710515 0.578371
vn 0 1 0
vt 0.670991 0.692272
vn 0 1 0
vt 0.670751 0.725788
vn 0 1 0
vt 0.666722 0.769747
vn 0 1 0
vt 0.729568 0.73027
vn 0 1 0
vt 0.777656 0.729336
vn 0 1 0
vt 0.841188 0.769763
vn 0 1 0
vt 0.700902 0.744445
vn 0 1 0
vt 0.729808 0.730113
vn -0.3134 0.8023 -0.5081
vt 0.670751 0.725788
vn -0.3134 0.8023 -0.5081
vt 0.729808 0.730113
vn -0.3134 0.8023 -0.5081
vt 0.700902 0.744445
vn -0.5582 -0.0189 0.8295
vt 0.287718 0.816491
vn -0.5582 -0.0189 0.8295
vt 0.307711 0.839123
vn -0.5582 -0.0189 0.8295
vt 0.287552 0.839127
vn 0 1 0
vt 0.736605 0.573241
vn -0.1964 0 0.9805
vt 0.287552 0.839127
vn -0.1964 0 0.9805
vt 0.307648 0.86562
vn -0.1964 0 0.9805
vt 0.287494 0.865616
vn -0.0041 0 1
vt 0.707944 0.411825
vn -0.0041 0 1
vt 0.707501 0.414492
vn -0.0041 0 1
vt 0.707501 0.411513
vn 1 0 -0.004
vt 0.680466 0.477526
vn 1 0 -0.004
vt 0.680907 0.474858
vn 1 0 -0.004
vt 0.680907 0.477838
vn 0.4981 0.7098 0.4981
vt 0.709626 0.47517
vn 0.4981 0.7098 0.4981
vt 0.709316 0.477838
vn 0.4981 0.7098 0.4981
vt 0.709316 0.474858
vn 0.4981 -0.7098 0.4981
vt 0.631665 0.479361
vn 0.4981 -0.7098 0.4981
vt 0.631984 0.476692
vn 0.4981 -0.7098 0.4981
vt 0.631984 0.479671
vn 0.7071 0 0.7071
vt 0.045392 0.55488
vn 0.7071 0 0.7071
vt 0.045392 0.55488
vn 0.7071 0 0.7071
vt 0.045392 0.55488
vn -0.004 0 1
vt 0.707866 0.475171
vn -0.004 0 1
vt 0.707424 0.477838
vn -0.004 0 1
vt 0.707424 0.474858
vn 1 0 -0.004
vt 0.681154 0.413045
vn 1 0 -0.004
vt 0.681596 0.410378
vn 1 0 -0.004
vt 0.681596 0.413357
vn 0.498 0.71 0.498
vt 0.709394 0.414181
vn 0.498 0.71 0.498
vt 0.709703 0.411513
vn 0.498 0.71 0.498
vt 0.709703 0.414492
vn 0.4981 -0.7098 0.4981
vt 0.708859 0.468137
vn 0.4981 -0.7098 0.4981
vt 0.709178 0.470801
vn 0.4981 -0.7098 0.4981
vt 0.708859 0.470491
vn 0 0 -1
vt 0.208952 0.967168
vn 0 0 -1
vt 0.208952 0.967168
vn 0 0 -1
vt 0.208952 0.967168
vn 0 1 0
vt 0.683955 0.410378
vn 0 1 0
vt 0.683046 0.414512
vn 0 1 0
vt 0.683046 0.410378
vn 1 0 0
vt 0.690122 0.414513
vn 1 0 0
vt 0.691029 0.410378
vn 1 0 0
vt 0.691029 0.414512
vn -1 0 0
vt 0.688672 0.410378
vn -1 0 0
vt 0.687763 0.414512
vn -1 0 0
vt 0.687763 0.410378
vn 0 -1 0
vt 0.686385 0.467822
vn 0 -1 0
vt 0.685476 0.471956
vn 0 -1 0
vt 0.685476 0.467822
vn 0 0 -1
vt 0.208952 0.967168
vn 0 0 -1
vt 0.208952 0.967168
vn 0 0 -1
vt 0.208952 0.967168
vn 0 1 0
vt 0.686313 0.410378
vn 0 1 0
vt 0.685405 0.414512
vn 0 1 0
vt 0.685405 0.410378
vn 1 0 0
vt 0.689441 0.474858
vn 1 0 0
vt 0.688534 0.478993
vn 1 0 0
vt 0.688534 0.474859
vn -1 0 0
vt 0.687835 0.471956
vn -1 0 0
vt 0.688743 0.467822
vn -1 0 0
vt 0.688743 0.471956
vn 0 -1 0
vt 0.686175 0.478992
vn 0 -1 0
vt 0.687084 0.474859
vn 0 -1 0
vt 0.687084 0.478992
vn 1 0 0
vt 0.666718 0.469928
vn 1 0 0
vt 0.661243 0.47332
vn 1 0 0
vt 0.661243 0.469932
vn 0 0 -1
vt 0.636865 0.473469
vn 0 0 -1
vt 0.633486 0.467989
vn 0 0 -1
vt 0.636865 0.46799
vn 0 0 1
vt 0.643807 0.473353
vn 0 0 1
vt 0.640428 0.467857
vn 0 0 1
vt 0.643807 0.467857
vn 0 1 0
vt 0.647383 0.467822
vn 0 1 0
vt 0.652864 0.473319
vn 0 1 0
vt 0.647383 0.473318
vn 0 -0.7071 -0.7071
vt 0.208952 0.967168
vn 0 -0.7071 -0.7071
vt 0.208952 0.967168
vn 0 -0.7071 -0.7071
vt 0.208952 0.967168
vn 0 -0.7071 0.7071
vt 0.208952 0.967168
vn 0 -0.7071 0.7071
vt 0.208952 0.967168
vn 0 -0.7071 0.7071
vt 0.208952 0.967168
vn -1 0 0
vt 0.659793 0.46993
vn -1 0 0
vt 0.654314 0.473318
vn -1 0 0
vt 0.654314 0.46993
vn -0.7071 0 0.7071
vt 0.045392 0.55488
vn 0.8067 0.0244 0.5904
vt 0.995875 0.504539
vn 1 0 0
vt 0.995875 0.504539
vn 0 1 0
vt 0.670991 0.692272
vn 0.3154 0.8116 -0.4917
vt 0.670991 0.692272
vn 0.5555 -0.0145 0.8314
vt 0.307876 0.816489
vn 0.2128 -0.0223 0.9768
vt 0.307711 0.839123
vn 0.0041 0 1
vt 0.707944 0.41418
vn -1 0 -0.004
vt 0.680466 0.475171
vn -0.4981 0.7098 0.4981
vt 0.709626 0.477525
vn -0.4981 -0.7098 0.4981
vt 0.631665 0.477007
vn -0.7071 0 0.7071
vt 0.045392 0.55488
vn 0.0037 0 1
vt 0.707866 0.477525
vn -1 0 -0.004
vt 0.681154 0.41069
vn -0.4981 0.7098 0.4981
vt 0.709394 0.411826
vn -0.4981 -0.7098 0.4981
vt 0.708859 0.470491
vn 0 0 -1
vt 0.208952 0.967168
vn 0 1 0
vt 0.683955 0.414512
vn -1 0 0
vt 0.690122 0.410378
vn 1 0 0
vt 0.688672 0.414512
vn 0 -1 0
vt 0.686385 0.471956
vn 0 0 -1
vt 0.208952 0.967168
vn 0 1 0
vt 0.686313 0.414512
vn -1 0 0
vt 0.689441 0.478993
vn 1 0 0
vt 0.687835 0.467822
vn 0 -1 0
vt 0.686175 0.474858
vn -1 0 0
vt 0.661243 0.47332
vn -1 0 0
vt 0.666718 0.473316
vn -1 0.0001 0
vt 0.664618 0.467822
vn 0 0 -1
vt 0.633486 0.473468
vn 0 0 1
vt 0.640428 0.473352
vn 0 1 0
vt 0.652864 0.467822
vn 0 -0.7071 -0.7071
vt 0.208952 0.967168
vn 0 -0.7071 0.7071
vt 0.208952 0.967168
vn 1 0 0
vt 0.654314 0.473318
vn 1 0 0
vt 0.659793 0.473318
vn 1 -0.0001 0
vt 0.657691 0.467822
vn 0.7071 0 0.7071
vt 0.045392 0.55488
vn -0.792 -0.0107 0.6104
vt 0.97574 0.481835
vn -1 0 0
vt 0.995875 0.504539
vn 0 1 0
vt 0.688194 0.593433
vn 0 1 0
vt 0.736845 0.573084
vn -0.3154 0.8116 -0.4917
vt 0.670991 0.692272
vn -0.5555 -0.0145 0.8314
vt 0.307876 0.816489
vn -0.2128 -0.0223 0.9768
vt 0.307711 0.839123
vn -0.0041 0 1
vt 0.707944 0.41418
vn 1 0 -0.004
vt 0.680466 0.475171
vn 0.498 0.71 0.498
vt 0.709626 0.477525
vn 0.498 -0.71 0.498
vt 0.631665 0.477007
vn 0.7071 0 0.7071
vt 0.045392 0.55488
vn -0.0039 0 1
vt 0.707866 0.477525
vn 1 0 -0.004
vt 0.681154 0.41069
vn 0.4981 0.7098 0.4981
vt 0.709394 0.411826
vn 0.498 -0.71 0.498
vt 0.709178 0.467822
vn 0 0 -1
vt 0.208952 0.967168
vn 0 1 0
vt 0.683955 0.414512
vn 1 0 0
vt 0.690122 0.410378
vn -1 0 0
vt 0.688672 0.414512
vn 0 -1 0
vt 0.686385 0.471956
vn 0 0 -1
vt 0.208952 0.967168
vn 0 1 0
vt 0.686313 0.414512
vn 1 0 0
vt 0.689441 0.478993
vn -1 0 0
vt 0.687835 0.467822
vn 0 -1 0
vt 0.686175 0.474858
vn 1 0 0
vt 0.666718 0.473316
vn 1 -0.0002 0
vt 0.663343 0.467823
vn 1 -0.0002 0
vt 0.664618 0.467822
vn 0 0 -1
vt 0.633486 0.473468
vn 0 0 1
vt 0.640428 0.473352
vn 0 1 0
vt 0.652864 0.467822
vn 0 -0.7071 -0.7071
vt 0.208952 0.967168
vn 0 -0.7071 0.7071
vt 0.208952 0.967168
vn -1 0 0
vt 0.659793 0.473318
vn -1 -0.0001 0
vt 0.656415 0.467822
vn -1 -0.0001 0
vt 0.657691 0.467822
f 16/1/1 17/2/2 18/3/3
f 1/4/4 3/5/5 4/6/6
f 2/7/7 8/8/8 3/9/9
f 6/10/10 2/11/11 13/12/12
f 3/5/5 1/4/4 2/13/13
f 2/13/13 1/4/4 64/14/14
f 7/15/15 9/16/16 8/17/17
f 64/14/14 13/18/18 2/13/13
f 121/19/19 13/18/18 65/20/20
f 14/21/21 120/22/22 10/23/23
f 120/22/22 12/24/24 121/19/19
f 9/16/16 122/25/25 5/26/26
f 122/27/27 13/28/28 12/29/29
f 4/30/30 8/31/31 9/32/32
f 1/4/4 4/6/6 11/33/33
f 11/34/34 9/35/35 5/36/36
f 19/37/37 15/38/38 20/39/39
f 21/40/40 18/41/41 22/42/42
f 22/43/43 17/44/44 19/45/45
f 20/46/46 16/47/47 21/48/48
f 24/49/49 25/50/50 26/51/51
f 27/52/52 23/53/53 28/54/54
f 29/55/55 26/56/56 30/57/57
f 30/58/58 25/59/59 27/60/60
f 23/61/61 29/62/62 28/63/63
f 32/64/64 33/65/65 34/66/66
f 36/67/67 32/68/68 37/69/69
f 37/70/70 34/71/71 38/72/72
f 35/73/73 31/74/74 36/75/75
f 38/76/76 33/77/77 35/78/78
f 40/79/79 41/80/80 42/81/81
f 44/82/82 40/83/83 45/84/84
f 45/85/85 42/86/86 46/87/87
f 43/88/88 39/89/89 44/90/90
f 46/91/91 41/92/92 43/93/93
f 55/94/94 58/95/95 56/96/96
f 50/97/97 53/98/98 58/99/99
f 47/100/100 55/101/101 52/102/102
f 50/103/103 47/104/104 48/105/105
f 54/106/106 58/107/107 53/108/108
f 56/109/109 52/110/110 55/111/111
f 53/112/112 52/113/113 54/114/114
f 78/115/115 77/116/116 79/117/117
f 123/118/118 63/119/119 62/120/120
f 61/121/121 69/122/122 68/123/123
f 61/124/124 67/125/125 74/126/126
f 62/120/120 61/127/127 123/118/118
f 61/127/127 64/14/14 123/118/118
f 68/128/128 70/129/129 67/130/130
f 74/131/131 64/14/14 61/127/127
f 74/131/131 60/132/132 65/20/20
f 75/133/133 71/134/134 59/135/135
f 73/136/136 59/135/135 60/132/132
f 70/129/129 124/137/137 67/130/130
f 74/138/138 124/139/139 73/140/140
f 69/141/141 63/142/142 70/143/143
f 123/118/118 72/144/144 63/119/119
f 70/145/145 72/146/146 66/147/147
f 76/148/148 80/149/149 81/150/150
f 79/151/151 82/152/152 83/153/153
f 78/154/154 83/155/155 80/156/156
f 77/157/157 81/158/158 82/159/159
f 86/160/160 85/161/161 87/162/162
f 84/163/163 88/164/164 89/165/165
f 87/166/166 90/167/167 91/168/168
f 86/169/169 91/170/170 88/171/171
f 84/172/172 90/173/173 85/174/174
f 94/175/175 93/176/176 95/177/177
f 93/178/178 97/179/179 98/180/180
f 95/181/181 98/182/182 99/183/183
f 92/184/184 96/185/185 97/186/186
f 94/187/187 99/188/188 96/189/189
f 102/190/190 101/191/191 103/192/192
f 101/193/193 105/194/194 106/195/195
f 103/196/196 106/197/197 107/198/198
f 100/199/199 104/200/200 105/201/201
f 102/202/202 107/203/203 104/204/204
f 119/205/205 110/206/206 116/207/207
f 114/208/208 111/209/209 119/210/210
f 116/211/211 108/212/212 113/213/213
f 108/214/214 111/215/215 109/216/216
f 119/217/217 115/218/218 114/219/219
f 113/220/220 117/221/221 116/222/222
f 113/223/223 109/224/224 114/225/225
f 15/226/226 17/2/2 16/1/1
f 7/227/227 8/8/8 2/7/7
f 7/228/228 2/11/11 6/10/10
f 6/229/229 9/16/16 7/15/15
f 65/20/20 13/18/18 64/14/14
f 12/24/24 13/18/18 121/19/19
f 14/21/21 12/24/24 120/22/22
f 6/229/229 122/25/25 9/16/16
f 6/230/230 13/28/28 122/27/27
f 3/231/231 8/31/31 4/30/30
f 4/232/232 9/35/35 11/34/34
f 17/233/233 15/38/38 19/37/37
f 16/234/234 18/41/41 21/40/40
f 18/235/235 17/44/44 22/43/43
f 15/236/236 16/47/47 20/46/46
f 23/237/237 25/50/50 24/49/49
f 25/238/238 23/53/53 27/52/52
f 24/239/239 26/56/56 29/55/55
f 26/240/240 25/59/59 30/58/58
f 24/241/241 29/62/62 23/61/61
f 31/242/242 33/65/65 32/64/64
f 31/243/243 32/68/68 36/67/67
f 32/244/244 34/71/71 37/70/70
f 33/245/245 31/74/74 35/73/73
f 34/246/246 33/77/77 38/76/76
f 39/247/247 41/80/80 40/79/79
f 39/248/248 40/83/83 44/82/82
f 40/249/249 42/86/86 45/85/85
f 41/250/250 39/89/89 43/88/88
f 42/251/251 41/92/92 46/91/91
f 58/95/95 49/252/252 50/253/253
f 49/252/252 58/95/95 55/94/94
f 56/96/96 58/95/95 57/254/254
f 48/255/255 53/98/98 50/97/97
f 49/256/256 55/101/101 47/100/100
f 49/257/257 47/104/104 50/103/103
f 57/258/258 58/107/107 54/106/106
f 51/259/259 52/110/110 56/109/109
f 52/113/113 48/260/260 47/261/261
f 48/260/260 52/113/113 53/112/112
f 54/114/114 52/113/113 51/262/262
f 76/263/263 77/116/116 78/115/115
f 62/264/264 69/122/122 61/121/121
f 68/265/265 67/125/125 61/124/124
f 69/266/266 70/129/129 68/128/128
f 65/20/20 64/14/14 74/131/131
f 73/136/136 60/132/132 74/131/131
f 75/133/133 59/135/135 73/136/136
f 66/267/267 124/137/137 70/129/129
f 67/268/268 124/139/139 74/138/138
f 62/269/269 63/142/142 69/141/141
f 63/270/270 72/146/146 70/145/145
f 78/271/271 80/149/149 76/148/148
f 77/272/272 82/152/152 79/151/151
f 79/273/273 83/155/155 78/154/154
f 76/274/274 81/158/158 77/157/157
f 84/275/275 85/161/161 86/160/160
f 86/276/276 88/164/164 84/163/163
f 85/277/277 90/167/167 87/166/166
f 87/278/278 91/170/170 86/169/169
f 89/279/279 90/173/173 84/172/172
f 92/280/280 93/176/176 94/175/175
f 92/281/281 97/179/179 93/178/178
f 93/282/282 98/182/182 95/181/181
f 94/283/283 96/185/185 92/184/184
f 95/284/284 99/188/188 94/187/187
f 100/285/285 101/191/191 102/190/190
f 100/286/286 105/194/194 101/193/193
f 101/287/287 106/197/197 103/196/196
f 102/288/288 104/200/200 100/199/199
f 103/289/289 107/203/203 102/202/202
f 110/206/206 119/205/205 111/290/290
f 119/205/205 117/291/291 118/292/292
f 117/291/291 119/205/205 116/207/207
f 109/293/293 111/209/209 114/208/208
f 110/294/294 108/212/212 116/211/211
f 110/295/295 111/215/215 108/214/214
f 118/296/296 115/218/218 119/217/217
f 112/297/297 117/221/221 113/220/220
f 109/224/224 113/223/223 108/298/298
f 113/223/223 115/299/299 112/300/300
f 115/299/299 113/223/223 114/225/225
